<?xml version="1.0" encoding="UTF-8" standalone="no"?>
<!-- Created with Inkscape (http://www.inkscape.org/) -->

<svg
   version="1.1"
   id="svg1"
   width="653.20178"
   height="658.94171"
   viewBox="0 0 653.20178 658.94171"
   sodipodi:docname="icon.svg"
   xml:space="preserve"
   inkscape:version="1.3 (0e150ed6c4, 2023-07-21)"
   xmlns:inkscape="http://www.inkscape.org/namespaces/inkscape"
   xmlns:sodipodi="http://sodipodi.sourceforge.net/DTD/sodipodi-0.dtd"
   xmlns:xlink="http://www.w3.org/1999/xlink"
   xmlns="http://www.w3.org/2000/svg"
   xmlns:svg="http://www.w3.org/2000/svg"><defs
     id="defs1"><linearGradient
       id="linearGradient25"
       inkscape:collect="always"><stop
         style="stop-color:#dcfafd;stop-opacity:1;"
         offset="0"
         id="stop25" /><stop
         style="stop-color:#dcfafd;stop-opacity:0;"
         offset="1"
         id="stop26" /></linearGradient><linearGradient
       id="linearGradient22"
       inkscape:collect="always"><stop
         style="stop-color:#8dc1ce;stop-opacity:1;"
         offset="0"
         id="stop22" /><stop
         style="stop-color:#8cc2cf;stop-opacity:0;"
         offset="1"
         id="stop23" /></linearGradient><linearGradient
       id="linearGradient19"
       inkscape:collect="always"><stop
         style="stop-color:#000000;stop-opacity:1;"
         offset="0"
         id="stop19" /><stop
         style="stop-color:#000000;stop-opacity:0;"
         offset="1"
         id="stop20" /></linearGradient><linearGradient
       id="linearGradient14"
       inkscape:collect="always"><stop
         style="stop-color:#c0ebf7;stop-opacity:1;"
         offset="0"
         id="stop14" /><stop
         style="stop-color:#032131;stop-opacity:0;"
         offset="1"
         id="stop15" /></linearGradient><linearGradient
       id="linearGradient11"
       inkscape:collect="always"><stop
         style="stop-color:#fefefd;stop-opacity:1;"
         offset="0"
         id="stop11" /><stop
         style="stop-color:#cae5e9;stop-opacity:1;"
         offset="1"
         id="stop12" /></linearGradient><linearGradient
       id="linearGradient7"
       inkscape:collect="always"><stop
         style="stop-color:#5797a9;stop-opacity:1;"
         offset="0"
         id="stop7" /><stop
         style="stop-color:#002639;stop-opacity:1;"
         offset="1"
         id="stop8" /></linearGradient><linearGradient
       id="linearGradient5"
       inkscape:collect="always"><stop
         style="stop-color:#5ac4e0;stop-opacity:1;"
         offset="0"
         id="stop5" /><stop
         style="stop-color:#35d2d9;stop-opacity:1;"
         offset="1"
         id="stop6" /></linearGradient><inkscape:path-effect
       effect="fillet_chamfer"
       id="path-effect1"
       is_visible="true"
       lpeversion="1"
       nodesatellites_param="F,0,0,1,0,178.39641,0,1 @ F,0,0,1,0,180.11839,0,1 @ F,0,0,1,0,163.47264,0,1 @ F,0,0,1,0,153.7148,0,1"
       radius="0"
       unit="px"
       method="auto"
       mode="F"
       chamfer_steps="1"
       flexible="false"
       use_knot_distance="true"
       apply_no_radius="true"
       apply_with_radius="true"
       only_selected="false"
       hide_knots="false" /><linearGradient
       inkscape:collect="always"
       xlink:href="#linearGradient5"
       id="linearGradient6"
       x1="364.62045"
       y1="601.04877"
       x2="656.9491"
       y2="601.04877"
       gradientUnits="userSpaceOnUse"
       gradientTransform="translate(-16,-14)" /><linearGradient
       inkscape:collect="always"
       xlink:href="#linearGradient7"
       id="linearGradient8"
       x1="235.33633"
       y1="237.63228"
       x2="774.88788"
       y2="780.62781"
       gradientUnits="userSpaceOnUse" /><linearGradient
       inkscape:collect="always"
       xlink:href="#linearGradient11"
       id="linearGradient12"
       x1="-25.71459"
       y1="647.63293"
       x2="-36.297005"
       y2="927.0946"
       gradientUnits="userSpaceOnUse"
       gradientTransform="translate(-2.8710273,-20.185421)" /><linearGradient
       inkscape:collect="always"
       xlink:href="#linearGradient14"
       id="linearGradient15"
       x1="522.84753"
       y1="541.12109"
       x2="508.21021"
       y2="525.77386"
       gradientUnits="userSpaceOnUse"
       gradientTransform="matrix(1.2208999,0,0,1.1691727,-132.34057,-104.36705)" /><linearGradient
       inkscape:collect="always"
       xlink:href="#linearGradient19"
       id="linearGradient20"
       x1="-189.83707"
       y1="769.41284"
       x2="-26.494572"
       y2="818.6261"
       gradientUnits="userSpaceOnUse"
       gradientTransform="translate(1.5377895,-21.315087)" /><linearGradient
       inkscape:collect="always"
       xlink:href="#linearGradient19"
       id="linearGradient21"
       gradientUnits="userSpaceOnUse"
       x1="-189.83707"
       y1="769.41284"
       x2="-26.494572"
       y2="818.6261"
       gradientTransform="translate(-599.6761,-773.56534)" /><linearGradient
       inkscape:collect="always"
       xlink:href="#linearGradient22"
       id="linearGradient23"
       x1="353.4212"
       y1="657.10834"
       x2="369.43851"
       y2="656.70245"
       gradientUnits="userSpaceOnUse"
       gradientTransform="matrix(0.27046891,0,0,1.0037487,253.30166,-16.487043)" /><linearGradient
       inkscape:collect="always"
       xlink:href="#linearGradient22"
       id="linearGradient24"
       gradientUnits="userSpaceOnUse"
       gradientTransform="matrix(0.27046891,0,0,0.7135048,428.2329,199.19582)"
       x1="353.4212"
       y1="657.10834"
       x2="369.43851"
       y2="656.70245" /><linearGradient
       inkscape:collect="always"
       xlink:href="#linearGradient25"
       id="linearGradient26"
       x1="609.41663"
       y1="471.15695"
       x2="657.43542"
       y2="471.15695"
       gradientUnits="userSpaceOnUse"
       gradientTransform="translate(-12,-12)" /><filter
       inkscape:collect="always"
       style="color-interpolation-filters:sRGB"
       id="filter27"
       x="-0.13694501"
       y="-0.43494664"
       width="1.2738789"
       height="1.8698933"><feGaussianBlur
         inkscape:collect="always"
         stdDeviation="6.8774396"
         id="feGaussianBlur27" /></filter><filter
       inkscape:collect="always"
       style="color-interpolation-filters:sRGB"
       id="filter28"
       x="-0.096703198"
       y="-0.33131079"
       width="1.193399"
       height="1.6626216"><feGaussianBlur
         inkscape:collect="always"
         stdDeviation="6.8774396"
         id="feGaussianBlur28" /></filter></defs><sodipodi:namedview
     id="namedview1"
     pagecolor="#ffffff"
     bordercolor="#000000"
     borderopacity="0.25"
     inkscape:showpageshadow="2"
     inkscape:pageopacity="0.0"
     inkscape:pagecheckerboard="0"
     inkscape:deskcolor="#d1d1d1"
     inkscape:zoom="0.6159563"
     inkscape:cx="-151.79648"
     inkscape:cy="375.0266"
     inkscape:window-width="1920"
     inkscape:window-height="1130"
     inkscape:window-x="-6"
     inkscape:window-y="-6"
     inkscape:window-maximized="1"
     inkscape:current-layer="g1"
     showgrid="false" /><g
     inkscape:groupmode="layer"
     inkscape:label="Image"
     id="g1"
     transform="translate(-180.23318,-172.19731)"><rect
       style="fill:url(#linearGradient8);fill-opacity:1;stroke:none"
       id="rect2"
       width="653.20178"
       height="658.94171"
       x="180.23318"
       y="172.19731"
       ry="198.60089" /><rect
       style="fill:#42cddc;fill-opacity:1;stroke:none;stroke-width:1.08444"
       id="rect1"
       width="45.834843"
       height="128.48955"
       x="598.50861"
       y="394.91217"
       ry="27.05043" /><path
       style="fill:url(#linearGradient6);stroke-width:12.2313"
       d="M 497.843,447.61139 640.94911,558.9167 V 726.4861 H 524.75134 v -117.421 h -61.15672 v 117.421 H 348.62045 V 560.13973 Z"
       id="path1-9" /><path
       style="fill:#ff2a2a;stroke:#ffffff;stroke-width:16.6;stroke-dasharray:none;stroke-opacity:1"
       d="m 496.48127,245.50281 c 46.48804,0 91.17607,21.73595 125.8401,61.21587 2.92,3.32 2.592,8.37599 -0.728,11.28798 -3.32,2.904 -8.37601,2.584 -11.28801,-0.736 -31.58403,-35.95992 -72.00806,-55.76789 -113.8241,-55.76789 -41.97603,0 -82.51206,19.93596 -114.14409,56.1359 -1.576,1.80799 -3.80001,2.73599 -6.024,2.73599 -1.87201,0 -3.75201,-0.648 -5.26401,-1.976 -3.32846,-2.90399 -3.66446,-7.95999 -0.76047,-11.28798 34.72004,-39.72792 79.52807,-61.60788 126.19211,-61.60788 z"
       id="path4" /><path
       style="fill:#ff2a2a;stroke:#ffffff;stroke-width:16.6;stroke-dasharray:none;stroke-opacity:1"
       d="m 496.47627,325.07884 c 33.03959,0 64.66321,15.55199 89.05492,43.80796 2.88796,3.344 2.51196,8.392 -0.832,11.27999 -1.50398,1.30401 -3.37596,1.944 -5.22393,1.944 -2.23998,0 -4.47995,-0.93599 -6.05593,-2.776 -21.30374,-24.67198 -48.63141,-38.25597 -76.94306,-38.25597 -27.75965,0 -54.67132,13.11999 -75.79107,36.93597 -2.93596,3.31201 -7.9919,3.6 -11.28786,0.68001 -3.30398,-2.928 -3.60798,-7.984 -0.68001,-11.296 24.1994,-27.28797 55.35902,-42.31996 87.75862,-42.31996 z"
       id="path3" /><rect
       style="fill:url(#linearGradient23);stroke:none;stroke-width:0.52104;stroke-dasharray:none;stroke-opacity:1"
       id="rect21"
       width="4.1714883"
       height="167.03172"
       x="349.02634"
       y="559.56866"
       ry="0" /><circle
       style="fill:#ffffff;fill-opacity:1;stroke:#032131;stroke-width:6.86082;stroke-dasharray:none;stroke-opacity:1"
       id="path14"
       cx="493.13004"
       cy="507.75787"
       r="21.659277" /><rect
       style="fill:none;fill-opacity:1;stroke:url(#linearGradient26);stroke-width:2.184;stroke-dasharray:none"
       id="rect24"
       width="45.834843"
       height="128.48955"
       x="598.50861"
       y="394.91217"
       ry="27.05043" /><rect
       style="fill:url(#linearGradient21);stroke:none;stroke-width:21.0689;stroke-dasharray:none"
       id="rect20"
       width="47.722645"
       height="286.25977"
       x="-669.00781"
       y="-118.63898"
       ry="24.221979"
       transform="matrix(-0.65813873,-0.75289668,-0.79812375,0.60249355,0,0)" /><ellipse
       style="fill:none;fill-opacity:1;stroke:url(#linearGradient15);stroke-width:1.19476;stroke-dasharray:none;stroke-opacity:1"
       id="circle14"
       cx="491.69803"
       cy="507.99634"
       rx="26.443808"
       ry="25.323433" /><rect
       style="fill:url(#linearGradient20);stroke:none;stroke-width:21.0689;stroke-dasharray:none"
       id="rect17"
       width="47.722645"
       height="286.25977"
       x="-67.793587"
       y="633.61121"
       ry="24.221979"
       transform="matrix(0.65813873,-0.75289668,0.79812375,0.60249355,0,0)" /><rect
       style="fill:url(#linearGradient12);stroke:none;stroke-width:21.0689;stroke-dasharray:none"
       id="rect10"
       width="47.722645"
       height="286.25977"
       x="-53.39035"
       y="621.73444"
       ry="24.221979"
       transform="matrix(0.65813873,-0.75289668,0.79812375,0.60249355,0,0)" /><rect
       style="fill:#f6fafa;fill-opacity:1;stroke:none;stroke-width:21.0689;stroke-dasharray:none"
       id="rect11"
       width="47.722645"
       height="286.25977"
       x="-653.09015"
       y="-125.76505"
       ry="24.221979"
       transform="matrix(-0.65813873,-0.75289668,-0.79812375,0.60249355,0,0)" /><rect
       style="fill:url(#linearGradient24);stroke:none;stroke-width:0.439296;stroke-dasharray:none;stroke-opacity:1"
       id="rect23"
       width="4.1714883"
       height="118.73284"
       x="523.95758"
       y="608.67932"
       ry="0" /><path
       style="opacity:0.571895;mix-blend-mode:normal;fill:#02293c;fill-opacity:1;stroke:#032435;stroke-width:16.6;stroke-dasharray:none;stroke-opacity:1;filter:url(#filter28)"
       d="m 519.78698,278.17297 c 46.48804,0 91.17607,21.73595 125.8401,61.21587 2.92,3.32 2.592,8.37599 -0.728,11.28798 -3.32,2.904 -8.37601,2.584 -11.28801,-0.736 -31.58403,-35.95992 -72.00806,-55.76789 -113.8241,-55.76789 -41.97603,0 -82.51206,19.93596 -114.14409,56.1359 -1.576,1.80799 -3.80001,2.73599 -6.024,2.73599 -1.87201,0 -3.75201,-0.648 -5.26401,-1.976 -3.32846,-2.90399 -3.66446,-7.95999 -0.76047,-11.28798 34.72004,-39.72792 79.52807,-61.60788 126.19211,-61.60788 z"
       id="path26"
       transform="matrix(0.95060833,0,0,1.0028598,2.359119,-14.990852)" /><path
       style="opacity:0.571895;mix-blend-mode:normal;fill:#02293c;fill-opacity:1;stroke:#032435;stroke-width:16.6;stroke-dasharray:none;stroke-opacity:1;filter:url(#filter27)"
       d="m 519.78198,357.749 c 33.03959,0 64.66321,15.55199 89.05492,43.80796 2.88796,3.344 2.51196,8.392 -0.832,11.27999 -1.50398,1.30401 -3.37596,1.944 -5.22393,1.944 -2.23998,0 -4.47995,-0.93599 -6.05593,-2.776 -21.30374,-24.67198 -48.63141,-38.25597 -76.94306,-38.25597 -27.75965,0 -54.67132,13.11999 -75.79107,36.93597 -2.93596,3.31201 -7.9919,3.6 -11.28786,0.68001 -3.30398,-2.928 -3.60798,-7.984 -0.68001,-11.296 24.1994,-27.28797 55.35902,-42.31996 87.75862,-42.31996 z"
       id="path27"
       transform="matrix(0.95060833,0,0,1.0028598,2.359119,-14.990852)" /></g></svg>
